<mxfile host="Electron" agent="Mozilla/5.0 (X11; Linux x86_64) AppleWebKit/537.36 (KHTML, like Gecko) draw.io/26.1.1 Chrome/132.0.6834.210 Electron/34.3.3 Safari/537.36" version="26.1.1">
  <diagram id="udVoaIFplxnLsgDLl3tw" name="Page-1">
    <mxGraphModel dx="1434" dy="870" grid="1" gridSize="10" guides="1" tooltips="1" connect="1" arrows="1" fold="1" page="1" pageScale="1" pageWidth="850" pageHeight="1100" background="#ffffff" math="0" shadow="0">
      <root>
        <mxCell id="0" />
        <mxCell id="1" parent="0" />
        <mxCell id="4q13NC8Jz4nGJBULxUIl-2" value="" style="shape=image;verticalLabelPosition=bottom;labelBackgroundColor=#ffffff;verticalAlign=top;aspect=fixed;imageAspect=0;image=data:image/svg+xml,PHN2ZyB4bWxucz0iaHR0cDovL3d3dy53My5vcmcvMjAwMC9zdmciIHhtbG5zOnhsaW5rPSJodHRwOi8vd3d3LnczLm9yZy8xOTk5L3hsaW5rIiB3aWR0aD0iMThweCIgaGVpZ2h0PSIyMnB4IiB2aWV3Qm94PSIwIDAgMTggMjIiIHZlcnNpb249IjEuMSI+JiN4YTsgICAgPCEtLSBHZW5lcmF0b3I6IFNrZXRjaCA1OCAoODQ2NjMpIC0gaHR0cHM6Ly9za2V0Y2guY29tIC0tPiYjeGE7ICAgIDx0aXRsZT5saWJyYXJ5LXNoZWx2ZXMgY29weSAzPC90aXRsZT4mI3hhOyAgICA8ZGVzYz5DcmVhdGVkIHdpdGggU2tldGNoLjwvZGVzYz4mI3hhOyAgICA8ZyBpZD0iU3R5bGVndWlkZS0mYW1wOy1UeXBlcGFnZXMiIHN0cm9rZT0ibm9uZSIgc3Ryb2tlLXdpZHRoPSIxIiBmaWxsPSJub25lIiBmaWxsLXJ1bGU9ImV2ZW5vZGQiPiYjeGE7ICAgICAgICA8ZyBpZD0iSWNvbnMiIHRyYW5zZm9ybT0idHJhbnNsYXRlKC03MzguMDAwMDAwLCAtMTE2Ny4wMDAwMDApIiBmaWxsPSIjRkZGRkZGIj4mI3hhOyAgICAgICAgICAgIDxnIGlkPSJsaWJyYXJ5LXNoZWx2ZXMtY29weS0zIiB0cmFuc2Zvcm09InRyYW5zbGF0ZSg3MzguMDAwMDAwLCAxMTY3LjAwMDAwMCkiPiYjeGE7ICAgICAgICAgICAgICAgIDxwYXRoIGQ9Ik0xNi41LDggTDE2LjUsMC41IEwxMy41LDAuNSBMMTMuNSw4IEwxMC41LDggTDEwLjUsMC41IEw3LjUsMC41IEw3LjUsOCBMNC41LDggTDQuNSwwLjUgTDEuNjUsMC41IEwxLjY1LDggTDAsOCBMMCw5LjUgTDE4LDkuNSBMMTgsOCBMMTYuNSw4IE0xNi41LDEyLjUgTDEzLjUsMTIuNSBMMTMuNSwyMCBMMTAuNSwyMCBMMTAuNSwxMi41IEw3LjUsMTIuNSBMNy41LDIwIEw0LjUsMjAgTDQuNSwxMi41IEwxLjY1LDEyLjUgTDEuNjUsMjAgTDAsMjAgTDAsMjEuNSBMMTgsMjEuNSBMMTgsMjAgTDE2LjUsMjAgTDE2LjUsMTIuNSBaIiBpZD0iU2hhcGUiLz4mI3hhOyAgICAgICAgICAgIDwvZz4mI3hhOyAgICAgICAgPC9nPiYjeGE7ICAgIDwvZz4mI3hhOzwvc3ZnPg==;imageBackground=none;" parent="1" vertex="1">
          <mxGeometry x="51" y="30.109999999999786" width="18" height="22" as="geometry" />
        </mxCell>
        <mxCell id="4q13NC8Jz4nGJBULxUIl-3" value="" style="group" parent="1" vertex="1" connectable="0">
          <mxGeometry x="234.5" y="159.99999999999977" width="80" height="79.24374999999998" as="geometry" />
        </mxCell>
        <mxCell id="4q13NC8Jz4nGJBULxUIl-4" value="&lt;font color=&quot;#663cdc&quot;&gt;&amp;nbsp; &amp;nbsp; &amp;nbsp; &amp;nbsp; &amp;nbsp; &amp;nbsp; Security&lt;br&gt;Server&lt;/font&gt;" style="rounded=1;whiteSpace=wrap;html=1;strokeColor=#663CDC;strokeWidth=2;fillColor=none;" parent="4q13NC8Jz4nGJBULxUIl-3" vertex="1">
          <mxGeometry width="80" height="79.24375" as="geometry" />
        </mxCell>
        <mxCell id="4q13NC8Jz4nGJBULxUIl-5" value="" style="shape=image;verticalLabelPosition=bottom;labelBackgroundColor=#ffffff;verticalAlign=top;aspect=fixed;imageAspect=0;image=data:image/svg+xml,PHN2ZyB4bWxucz0iaHR0cDovL3d3dy53My5vcmcvMjAwMC9zdmciIHhtbG5zOnhsaW5rPSJodHRwOi8vd3d3LnczLm9yZy8xOTk5L3hsaW5rIiB3aWR0aD0iMjBweCIgaGVpZ2h0PSIxOHB4IiB2aWV3Qm94PSIwIDAgMjAgMTgiIHZlcnNpb249IjEuMSI+JiN4YTsgICAgPCEtLSBHZW5lcmF0b3I6IFNrZXRjaCA1OCAoODQ2NjMpIC0gaHR0cHM6Ly9za2V0Y2guY29tIC0tPiYjeGE7ICAgIDx0aXRsZT5Db21iaW5lZCBTaGFwZTwvdGl0bGU+JiN4YTsgICAgPGRlc2M+Q3JlYXRlZCB3aXRoIFNrZXRjaC48L2Rlc2M+JiN4YTsgICAgPGcgaWQ9IlN0eWxlZ3VpZGUtJmFtcDstVHlwZXBhZ2VzIiBzdHJva2U9Im5vbmUiIHN0cm9rZS13aWR0aD0iMSIgZmlsbD0ibm9uZSIgZmlsbC1ydWxlPSJldmVub2RkIj4mI3hhOyAgICAgICAgPGcgaWQ9Ikljb25zIiB0cmFuc2Zvcm09InRyYW5zbGF0ZSgtODg4LjAwMDAwMCwgLTQ3Ny4wMDAwMDApIiBmaWxsPSIjNjYzQ0RDIj4mI3hhOyAgICAgICAgICAgIDxwYXRoIGQ9Ik04OTIsNDgzIEw4OTQsNDgzIEw4OTQsNDkxIEw4OTcsNDkxIEw4OTcsNDgzIEw4OTksNDgzIEw4OTksNDkxIEw5MDIsNDkxIEw5MDIsNDgzIEw5MDQsNDgzIEw5MDQsNDkxIEw5MDYsNDkxIEw5MDYsNDkzIEw5MDgsNDkzIEw5MDgsNDk1IEw4ODgsNDk1IEw4ODgsNDkzIEw4OTAsNDkzIEw4OTAsNDkxIEw4OTIsNDkxIEw4OTIsNDgzIFogTTg5OCw0NzcgQzkwMS44MjQzMzQsNDc3IDkwNS4wNTg3NzcsNDc5LjUyNTYyMyA5MDYuMTI2Mzc1LDQ4Mi45OTk5MTQgTDg4OS44NzM2MjUsNDgyLjk5OTkxNCBDODkwLjk0MTIyMyw0NzkuNTI1NjIzIDg5NC4xNzU2NjYsNDc3IDg5OCw0NzcgWiIgaWQ9IkNvbWJpbmVkLVNoYXBlIi8+JiN4YTsgICAgICAgIDwvZz4mI3hhOyAgICA8L2c+JiN4YTs8L3N2Zz4=;" parent="4q13NC8Jz4nGJBULxUIl-3" vertex="1">
          <mxGeometry x="30" y="13.079214843749924" width="20" height="18" as="geometry" />
        </mxCell>
        <mxCell id="4q13NC8Jz4nGJBULxUIl-24" style="rounded=0;orthogonalLoop=1;jettySize=auto;html=1;entryX=0;entryY=0.5;entryDx=0;entryDy=0;dashed=1;" parent="1" source="4q13NC8Jz4nGJBULxUIl-6" target="4q13NC8Jz4nGJBULxUIl-8" edge="1">
          <mxGeometry relative="1" as="geometry" />
        </mxCell>
        <mxCell id="4q13NC8Jz4nGJBULxUIl-25" style="edgeStyle=none;rounded=0;orthogonalLoop=1;jettySize=auto;html=1;entryX=0;entryY=0.5;entryDx=0;entryDy=0;dashed=1;" parent="1" source="4q13NC8Jz4nGJBULxUIl-6" target="4q13NC8Jz4nGJBULxUIl-11" edge="1">
          <mxGeometry relative="1" as="geometry" />
        </mxCell>
        <mxCell id="4q13NC8Jz4nGJBULxUIl-26" style="edgeStyle=none;rounded=0;orthogonalLoop=1;jettySize=auto;html=1;entryX=0;entryY=0.5;entryDx=0;entryDy=0;dashed=1;" parent="1" source="4q13NC8Jz4nGJBULxUIl-6" target="4q13NC8Jz4nGJBULxUIl-14" edge="1">
          <mxGeometry relative="1" as="geometry" />
        </mxCell>
        <mxCell id="4q13NC8Jz4nGJBULxUIl-6" value="&lt;font color=&quot;#663cdc&quot; style=&quot;font-size: 12px&quot;&gt;Load Balancer&lt;/font&gt;" style="shape=hexagon;perimeter=hexagonPerimeter2;whiteSpace=wrap;html=1;rounded=1;shadow=0;strokeColor=#663CDC;strokeWidth=2;fillColor=#D1C4F4;fontSize=15;fontColor=#FFFFFF;arcSize=5;" parent="1" vertex="1">
          <mxGeometry x="380" y="170" width="70" height="60" as="geometry" />
        </mxCell>
        <mxCell id="4q13NC8Jz4nGJBULxUIl-7" value="" style="group" parent="1" vertex="1" connectable="0">
          <mxGeometry x="510" y="51.99999999999977" width="80" height="79.24374999999998" as="geometry" />
        </mxCell>
        <mxCell id="4q13NC8Jz4nGJBULxUIl-8" value="&lt;font color=&quot;#663cdc&quot;&gt;&amp;nbsp; &amp;nbsp; &amp;nbsp; &amp;nbsp; &amp;nbsp; &amp;nbsp; Security&lt;br&gt;Server&lt;/font&gt;" style="rounded=1;whiteSpace=wrap;html=1;strokeColor=#663CDC;strokeWidth=2;fillColor=none;" parent="4q13NC8Jz4nGJBULxUIl-7" vertex="1">
          <mxGeometry width="80" height="79.24375" as="geometry" />
        </mxCell>
        <mxCell id="4q13NC8Jz4nGJBULxUIl-9" value="" style="shape=image;verticalLabelPosition=bottom;labelBackgroundColor=#ffffff;verticalAlign=top;aspect=fixed;imageAspect=0;image=data:image/svg+xml,PHN2ZyB4bWxucz0iaHR0cDovL3d3dy53My5vcmcvMjAwMC9zdmciIHhtbG5zOnhsaW5rPSJodHRwOi8vd3d3LnczLm9yZy8xOTk5L3hsaW5rIiB3aWR0aD0iMjBweCIgaGVpZ2h0PSIxOHB4IiB2aWV3Qm94PSIwIDAgMjAgMTgiIHZlcnNpb249IjEuMSI+JiN4YTsgICAgPCEtLSBHZW5lcmF0b3I6IFNrZXRjaCA1OCAoODQ2NjMpIC0gaHR0cHM6Ly9za2V0Y2guY29tIC0tPiYjeGE7ICAgIDx0aXRsZT5Db21iaW5lZCBTaGFwZTwvdGl0bGU+JiN4YTsgICAgPGRlc2M+Q3JlYXRlZCB3aXRoIFNrZXRjaC48L2Rlc2M+JiN4YTsgICAgPGcgaWQ9IlN0eWxlZ3VpZGUtJmFtcDstVHlwZXBhZ2VzIiBzdHJva2U9Im5vbmUiIHN0cm9rZS13aWR0aD0iMSIgZmlsbD0ibm9uZSIgZmlsbC1ydWxlPSJldmVub2RkIj4mI3hhOyAgICAgICAgPGcgaWQ9Ikljb25zIiB0cmFuc2Zvcm09InRyYW5zbGF0ZSgtODg4LjAwMDAwMCwgLTQ3Ny4wMDAwMDApIiBmaWxsPSIjNjYzQ0RDIj4mI3hhOyAgICAgICAgICAgIDxwYXRoIGQ9Ik04OTIsNDgzIEw4OTQsNDgzIEw4OTQsNDkxIEw4OTcsNDkxIEw4OTcsNDgzIEw4OTksNDgzIEw4OTksNDkxIEw5MDIsNDkxIEw5MDIsNDgzIEw5MDQsNDgzIEw5MDQsNDkxIEw5MDYsNDkxIEw5MDYsNDkzIEw5MDgsNDkzIEw5MDgsNDk1IEw4ODgsNDk1IEw4ODgsNDkzIEw4OTAsNDkzIEw4OTAsNDkxIEw4OTIsNDkxIEw4OTIsNDgzIFogTTg5OCw0NzcgQzkwMS44MjQzMzQsNDc3IDkwNS4wNTg3NzcsNDc5LjUyNTYyMyA5MDYuMTI2Mzc1LDQ4Mi45OTk5MTQgTDg4OS44NzM2MjUsNDgyLjk5OTkxNCBDODkwLjk0MTIyMyw0NzkuNTI1NjIzIDg5NC4xNzU2NjYsNDc3IDg5OCw0NzcgWiIgaWQ9IkNvbWJpbmVkLVNoYXBlIi8+JiN4YTsgICAgICAgIDwvZz4mI3hhOyAgICA8L2c+JiN4YTs8L3N2Zz4=;" parent="4q13NC8Jz4nGJBULxUIl-7" vertex="1">
          <mxGeometry x="30" y="13.079214843749924" width="20" height="18" as="geometry" />
        </mxCell>
        <mxCell id="4q13NC8Jz4nGJBULxUIl-10" value="" style="group" parent="1" vertex="1" connectable="0">
          <mxGeometry x="530" y="159.99999999999977" width="80" height="79.24374999999998" as="geometry" />
        </mxCell>
        <mxCell id="4q13NC8Jz4nGJBULxUIl-11" value="&lt;font color=&quot;#663cdc&quot;&gt;&amp;nbsp; &amp;nbsp; &amp;nbsp; &amp;nbsp; &amp;nbsp; &amp;nbsp; Security&lt;br&gt;Server&lt;/font&gt;" style="rounded=1;whiteSpace=wrap;html=1;strokeColor=#663CDC;strokeWidth=2;fillColor=none;" parent="4q13NC8Jz4nGJBULxUIl-10" vertex="1">
          <mxGeometry width="80" height="79.24375" as="geometry" />
        </mxCell>
        <mxCell id="4q13NC8Jz4nGJBULxUIl-12" value="" style="shape=image;verticalLabelPosition=bottom;labelBackgroundColor=#ffffff;verticalAlign=top;aspect=fixed;imageAspect=0;image=data:image/svg+xml,PHN2ZyB4bWxucz0iaHR0cDovL3d3dy53My5vcmcvMjAwMC9zdmciIHhtbG5zOnhsaW5rPSJodHRwOi8vd3d3LnczLm9yZy8xOTk5L3hsaW5rIiB3aWR0aD0iMjBweCIgaGVpZ2h0PSIxOHB4IiB2aWV3Qm94PSIwIDAgMjAgMTgiIHZlcnNpb249IjEuMSI+JiN4YTsgICAgPCEtLSBHZW5lcmF0b3I6IFNrZXRjaCA1OCAoODQ2NjMpIC0gaHR0cHM6Ly9za2V0Y2guY29tIC0tPiYjeGE7ICAgIDx0aXRsZT5Db21iaW5lZCBTaGFwZTwvdGl0bGU+JiN4YTsgICAgPGRlc2M+Q3JlYXRlZCB3aXRoIFNrZXRjaC48L2Rlc2M+JiN4YTsgICAgPGcgaWQ9IlN0eWxlZ3VpZGUtJmFtcDstVHlwZXBhZ2VzIiBzdHJva2U9Im5vbmUiIHN0cm9rZS13aWR0aD0iMSIgZmlsbD0ibm9uZSIgZmlsbC1ydWxlPSJldmVub2RkIj4mI3hhOyAgICAgICAgPGcgaWQ9Ikljb25zIiB0cmFuc2Zvcm09InRyYW5zbGF0ZSgtODg4LjAwMDAwMCwgLTQ3Ny4wMDAwMDApIiBmaWxsPSIjNjYzQ0RDIj4mI3hhOyAgICAgICAgICAgIDxwYXRoIGQ9Ik04OTIsNDgzIEw4OTQsNDgzIEw4OTQsNDkxIEw4OTcsNDkxIEw4OTcsNDgzIEw4OTksNDgzIEw4OTksNDkxIEw5MDIsNDkxIEw5MDIsNDgzIEw5MDQsNDgzIEw5MDQsNDkxIEw5MDYsNDkxIEw5MDYsNDkzIEw5MDgsNDkzIEw5MDgsNDk1IEw4ODgsNDk1IEw4ODgsNDkzIEw4OTAsNDkzIEw4OTAsNDkxIEw4OTIsNDkxIEw4OTIsNDgzIFogTTg5OCw0NzcgQzkwMS44MjQzMzQsNDc3IDkwNS4wNTg3NzcsNDc5LjUyNTYyMyA5MDYuMTI2Mzc1LDQ4Mi45OTk5MTQgTDg4OS44NzM2MjUsNDgyLjk5OTkxNCBDODkwLjk0MTIyMyw0NzkuNTI1NjIzIDg5NC4xNzU2NjYsNDc3IDg5OCw0NzcgWiIgaWQ9IkNvbWJpbmVkLVNoYXBlIi8+JiN4YTsgICAgICAgIDwvZz4mI3hhOyAgICA8L2c+JiN4YTs8L3N2Zz4=;" parent="4q13NC8Jz4nGJBULxUIl-10" vertex="1">
          <mxGeometry x="30" y="13.079214843749924" width="20" height="18" as="geometry" />
        </mxCell>
        <mxCell id="4q13NC8Jz4nGJBULxUIl-13" value="" style="group" parent="1" vertex="1" connectable="0">
          <mxGeometry x="510" y="269.9999999999998" width="80" height="79.24374999999998" as="geometry" />
        </mxCell>
        <mxCell id="4q13NC8Jz4nGJBULxUIl-14" value="&lt;font color=&quot;#663cdc&quot;&gt;&amp;nbsp; &amp;nbsp; &amp;nbsp; &amp;nbsp; &amp;nbsp; &amp;nbsp; Security&lt;br&gt;Server&lt;/font&gt;" style="rounded=1;whiteSpace=wrap;html=1;strokeColor=#663CDC;strokeWidth=2;fillColor=none;" parent="4q13NC8Jz4nGJBULxUIl-13" vertex="1">
          <mxGeometry width="80" height="79.24375" as="geometry" />
        </mxCell>
        <mxCell id="4q13NC8Jz4nGJBULxUIl-15" value="" style="shape=image;verticalLabelPosition=bottom;labelBackgroundColor=#ffffff;verticalAlign=top;aspect=fixed;imageAspect=0;image=data:image/svg+xml,PHN2ZyB4bWxucz0iaHR0cDovL3d3dy53My5vcmcvMjAwMC9zdmciIHhtbG5zOnhsaW5rPSJodHRwOi8vd3d3LnczLm9yZy8xOTk5L3hsaW5rIiB3aWR0aD0iMjBweCIgaGVpZ2h0PSIxOHB4IiB2aWV3Qm94PSIwIDAgMjAgMTgiIHZlcnNpb249IjEuMSI+JiN4YTsgICAgPCEtLSBHZW5lcmF0b3I6IFNrZXRjaCA1OCAoODQ2NjMpIC0gaHR0cHM6Ly9za2V0Y2guY29tIC0tPiYjeGE7ICAgIDx0aXRsZT5Db21iaW5lZCBTaGFwZTwvdGl0bGU+JiN4YTsgICAgPGRlc2M+Q3JlYXRlZCB3aXRoIFNrZXRjaC48L2Rlc2M+JiN4YTsgICAgPGcgaWQ9IlN0eWxlZ3VpZGUtJmFtcDstVHlwZXBhZ2VzIiBzdHJva2U9Im5vbmUiIHN0cm9rZS13aWR0aD0iMSIgZmlsbD0ibm9uZSIgZmlsbC1ydWxlPSJldmVub2RkIj4mI3hhOyAgICAgICAgPGcgaWQ9Ikljb25zIiB0cmFuc2Zvcm09InRyYW5zbGF0ZSgtODg4LjAwMDAwMCwgLTQ3Ny4wMDAwMDApIiBmaWxsPSIjNjYzQ0RDIj4mI3hhOyAgICAgICAgICAgIDxwYXRoIGQ9Ik04OTIsNDgzIEw4OTQsNDgzIEw4OTQsNDkxIEw4OTcsNDkxIEw4OTcsNDgzIEw4OTksNDgzIEw4OTksNDkxIEw5MDIsNDkxIEw5MDIsNDgzIEw5MDQsNDgzIEw5MDQsNDkxIEw5MDYsNDkxIEw5MDYsNDkzIEw5MDgsNDkzIEw5MDgsNDk1IEw4ODgsNDk1IEw4ODgsNDkzIEw4OTAsNDkzIEw4OTAsNDkxIEw4OTIsNDkxIEw4OTIsNDgzIFogTTg5OCw0NzcgQzkwMS44MjQzMzQsNDc3IDkwNS4wNTg3NzcsNDc5LjUyNTYyMyA5MDYuMTI2Mzc1LDQ4Mi45OTk5MTQgTDg4OS44NzM2MjUsNDgyLjk5OTkxNCBDODkwLjk0MTIyMyw0NzkuNTI1NjIzIDg5NC4xNzU2NjYsNDc3IDg5OCw0NzcgWiIgaWQ9IkNvbWJpbmVkLVNoYXBlIi8+JiN4YTsgICAgICAgIDwvZz4mI3hhOyAgICA8L2c+JiN4YTs8L3N2Zz4=;" parent="4q13NC8Jz4nGJBULxUIl-13" vertex="1">
          <mxGeometry x="30" y="13.079214843749924" width="20" height="18" as="geometry" />
        </mxCell>
        <mxCell id="4q13NC8Jz4nGJBULxUIl-22" style="edgeStyle=orthogonalEdgeStyle;rounded=0;orthogonalLoop=1;jettySize=auto;html=1;entryX=0;entryY=0.5;entryDx=0;entryDy=0;" parent="1" source="4q13NC8Jz4nGJBULxUIl-17" target="4q13NC8Jz4nGJBULxUIl-4" edge="1">
          <mxGeometry relative="1" as="geometry" />
        </mxCell>
        <mxCell id="4q13NC8Jz4nGJBULxUIl-17" value="&lt;font color=&quot;#ffffff&quot;&gt;&lt;br&gt;Information&lt;br&gt;System&lt;/font&gt;" style="ellipse;whiteSpace=wrap;html=1;aspect=fixed;strokeWidth=2;strokeColor=none;fillColor=#663CDC;" parent="1" vertex="1">
          <mxGeometry x="81" y="159.9999999999999" width="80" height="80" as="geometry" />
        </mxCell>
        <mxCell id="4q13NC8Jz4nGJBULxUIl-18" value="" style="shape=image;verticalLabelPosition=bottom;labelBackgroundColor=#ffffff;verticalAlign=top;aspect=fixed;imageAspect=0;image=data:image/svg+xml,PHN2ZyB4bWxucz0iaHR0cDovL3d3dy53My5vcmcvMjAwMC9zdmciIHhtbG5zOnhsaW5rPSJodHRwOi8vd3d3LnczLm9yZy8xOTk5L3hsaW5rIiB3aWR0aD0iMThweCIgaGVpZ2h0PSIyMnB4IiB2aWV3Qm94PSIwIDAgMTggMjIiIHZlcnNpb249IjEuMSI+JiN4YTsgICAgPCEtLSBHZW5lcmF0b3I6IFNrZXRjaCA1OCAoODQ2NjMpIC0gaHR0cHM6Ly9za2V0Y2guY29tIC0tPiYjeGE7ICAgIDx0aXRsZT5saWJyYXJ5LXNoZWx2ZXMgY29weSAzPC90aXRsZT4mI3hhOyAgICA8ZGVzYz5DcmVhdGVkIHdpdGggU2tldGNoLjwvZGVzYz4mI3hhOyAgICA8ZyBpZD0iU3R5bGVndWlkZS0mYW1wOy1UeXBlcGFnZXMiIHN0cm9rZT0ibm9uZSIgc3Ryb2tlLXdpZHRoPSIxIiBmaWxsPSJub25lIiBmaWxsLXJ1bGU9ImV2ZW5vZGQiPiYjeGE7ICAgICAgICA8ZyBpZD0iSWNvbnMiIHRyYW5zZm9ybT0idHJhbnNsYXRlKC03MzguMDAwMDAwLCAtMTE2Ny4wMDAwMDApIiBmaWxsPSIjRkZGRkZGIj4mI3hhOyAgICAgICAgICAgIDxnIGlkPSJsaWJyYXJ5LXNoZWx2ZXMtY29weS0zIiB0cmFuc2Zvcm09InRyYW5zbGF0ZSg3MzguMDAwMDAwLCAxMTY3LjAwMDAwMCkiPiYjeGE7ICAgICAgICAgICAgICAgIDxwYXRoIGQ9Ik0xNi41LDggTDE2LjUsMC41IEwxMy41LDAuNSBMMTMuNSw4IEwxMC41LDggTDEwLjUsMC41IEw3LjUsMC41IEw3LjUsOCBMNC41LDggTDQuNSwwLjUgTDEuNjUsMC41IEwxLjY1LDggTDAsOCBMMCw5LjUgTDE4LDkuNSBMMTgsOCBMMTYuNSw4IE0xNi41LDEyLjUgTDEzLjUsMTIuNSBMMTMuNSwyMCBMMTAuNSwyMCBMMTAuNSwxMi41IEw3LjUsMTIuNSBMNy41LDIwIEw0LjUsMjAgTDQuNSwxMi41IEwxLjY1LDEyLjUgTDEuNjUsMjAgTDAsMjAgTDAsMjEuNSBMMTgsMjEuNSBMMTgsMjAgTDE2LjUsMjAgTDE2LjUsMTIuNSBaIiBpZD0iU2hhcGUiLz4mI3hhOyAgICAgICAgICAgIDwvZz4mI3hhOyAgICAgICAgPC9nPiYjeGE7ICAgIDwvZz4mI3hhOzwvc3ZnPg==;imageBackground=none;" parent="1" vertex="1">
          <mxGeometry x="112" y="170.1099999999998" width="18" height="22" as="geometry" />
        </mxCell>
        <mxCell id="4q13NC8Jz4nGJBULxUIl-20" value="&lt;font color=&quot;#ffffff&quot;&gt;&lt;br&gt;Information&lt;br&gt;System&lt;/font&gt;" style="ellipse;whiteSpace=wrap;html=1;aspect=fixed;strokeWidth=2;strokeColor=none;fillColor=#663CDC;" parent="1" vertex="1">
          <mxGeometry x="720" y="159.9999999999999" width="80" height="80" as="geometry" />
        </mxCell>
        <mxCell id="4q13NC8Jz4nGJBULxUIl-21" value="" style="shape=image;verticalLabelPosition=bottom;labelBackgroundColor=#ffffff;verticalAlign=top;aspect=fixed;imageAspect=0;image=data:image/svg+xml,PHN2ZyB4bWxucz0iaHR0cDovL3d3dy53My5vcmcvMjAwMC9zdmciIHhtbG5zOnhsaW5rPSJodHRwOi8vd3d3LnczLm9yZy8xOTk5L3hsaW5rIiB3aWR0aD0iMThweCIgaGVpZ2h0PSIyMnB4IiB2aWV3Qm94PSIwIDAgMTggMjIiIHZlcnNpb249IjEuMSI+JiN4YTsgICAgPCEtLSBHZW5lcmF0b3I6IFNrZXRjaCA1OCAoODQ2NjMpIC0gaHR0cHM6Ly9za2V0Y2guY29tIC0tPiYjeGE7ICAgIDx0aXRsZT5saWJyYXJ5LXNoZWx2ZXMgY29weSAzPC90aXRsZT4mI3hhOyAgICA8ZGVzYz5DcmVhdGVkIHdpdGggU2tldGNoLjwvZGVzYz4mI3hhOyAgICA8ZyBpZD0iU3R5bGVndWlkZS0mYW1wOy1UeXBlcGFnZXMiIHN0cm9rZT0ibm9uZSIgc3Ryb2tlLXdpZHRoPSIxIiBmaWxsPSJub25lIiBmaWxsLXJ1bGU9ImV2ZW5vZGQiPiYjeGE7ICAgICAgICA8ZyBpZD0iSWNvbnMiIHRyYW5zZm9ybT0idHJhbnNsYXRlKC03MzguMDAwMDAwLCAtMTE2Ny4wMDAwMDApIiBmaWxsPSIjRkZGRkZGIj4mI3hhOyAgICAgICAgICAgIDxnIGlkPSJsaWJyYXJ5LXNoZWx2ZXMtY29weS0zIiB0cmFuc2Zvcm09InRyYW5zbGF0ZSg3MzguMDAwMDAwLCAxMTY3LjAwMDAwMCkiPiYjeGE7ICAgICAgICAgICAgICAgIDxwYXRoIGQ9Ik0xNi41LDggTDE2LjUsMC41IEwxMy41LDAuNSBMMTMuNSw4IEwxMC41LDggTDEwLjUsMC41IEw3LjUsMC41IEw3LjUsOCBMNC41LDggTDQuNSwwLjUgTDEuNjUsMC41IEwxLjY1LDggTDAsOCBMMCw5LjUgTDE4LDkuNSBMMTgsOCBMMTYuNSw4IE0xNi41LDEyLjUgTDEzLjUsMTIuNSBMMTMuNSwyMCBMMTAuNSwyMCBMMTAuNSwxMi41IEw3LjUsMTIuNSBMNy41LDIwIEw0LjUsMjAgTDQuNSwxMi41IEwxLjY1LDEyLjUgTDEuNjUsMjAgTDAsMjAgTDAsMjEuNSBMMTgsMjEuNSBMMTgsMjAgTDE2LjUsMjAgTDE2LjUsMTIuNSBaIiBpZD0iU2hhcGUiLz4mI3hhOyAgICAgICAgICAgIDwvZz4mI3hhOyAgICAgICAgPC9nPiYjeGE7ICAgIDwvZz4mI3hhOzwvc3ZnPg==;imageBackground=none;" parent="1" vertex="1">
          <mxGeometry x="751" y="170.1099999999998" width="18" height="22" as="geometry" />
        </mxCell>
        <mxCell id="4q13NC8Jz4nGJBULxUIl-23" style="edgeStyle=orthogonalEdgeStyle;rounded=0;orthogonalLoop=1;jettySize=auto;html=1;entryX=0;entryY=0.5;entryDx=0;entryDy=0;" parent="1" source="4q13NC8Jz4nGJBULxUIl-4" target="4q13NC8Jz4nGJBULxUIl-6" edge="1">
          <mxGeometry relative="1" as="geometry" />
        </mxCell>
        <mxCell id="4q13NC8Jz4nGJBULxUIl-27" style="edgeStyle=none;rounded=0;orthogonalLoop=1;jettySize=auto;html=1;entryX=0;entryY=0.5;entryDx=0;entryDy=0;" parent="1" source="4q13NC8Jz4nGJBULxUIl-8" target="4q13NC8Jz4nGJBULxUIl-20" edge="1">
          <mxGeometry relative="1" as="geometry" />
        </mxCell>
        <mxCell id="4q13NC8Jz4nGJBULxUIl-28" style="edgeStyle=none;rounded=0;orthogonalLoop=1;jettySize=auto;html=1;" parent="1" source="4q13NC8Jz4nGJBULxUIl-11" target="4q13NC8Jz4nGJBULxUIl-20" edge="1">
          <mxGeometry relative="1" as="geometry" />
        </mxCell>
        <mxCell id="4q13NC8Jz4nGJBULxUIl-29" style="edgeStyle=none;rounded=0;orthogonalLoop=1;jettySize=auto;html=1;entryX=0;entryY=0.5;entryDx=0;entryDy=0;" parent="1" source="4q13NC8Jz4nGJBULxUIl-14" target="4q13NC8Jz4nGJBULxUIl-20" edge="1">
          <mxGeometry relative="1" as="geometry" />
        </mxCell>
      </root>
    </mxGraphModel>
  </diagram>
</mxfile>
